<svg xmlns:dc="http://purl.org/dc/elements/1.1/" xmlns:cc="http://creativecommons.org/ns#" xmlns:rdf="http://www.w3.org/1999/02/22-rdf-syntax-ns#" xmlns:svg="http://www.w3.org/2000/svg" xmlns="http://www.w3.org/2000/svg" xmlns:sodipodi="http://sodipodi.sourceforge.net/DTD/sodipodi-0.dtd" xmlns:inkscape="http://www.inkscape.org/namespaces/inkscape" width="24" height="24" viewBox="0 0 6.3499999 6.3500002" version="1.1" id="svg8" inkscape:version="0.92.4 (5da689c313, 2019-01-14)" sodipodi:docname="14. Chat Communication.svg">
<defs id="defs2">
<pattern y="0" x="0" height="6" width="6" patternUnits="userSpaceOnUse" id="EMFhbasepattern"></pattern>
<pattern y="0" x="0" height="6" width="6" patternUnits="userSpaceOnUse" id="EMFhbasepattern-3"></pattern>
<pattern y="0" x="0" height="6" width="6" patternUnits="userSpaceOnUse" id="EMFhbasepattern-2"></pattern>
<pattern y="0" x="0" height="6" width="6" patternUnits="userSpaceOnUse" id="EMFhbasepattern-1"></pattern>
<pattern y="0" x="0" height="6" width="6" patternUnits="userSpaceOnUse" id="EMFhbasepattern-5"></pattern>
</defs>
<sodipodi:namedview id="base" pagecolor="#ffffff" bordercolor="#666666" borderopacity="1.0" inkscape:pageopacity="0.0" inkscape:pageshadow="2" inkscape:zoom="7.9999996" inkscape:cx="2.1805073" inkscape:cy="15.36423" inkscape:document-units="px" inkscape:current-layer="layer1" showgrid="false" units="px" inkscape:window-width="1280" inkscape:window-height="658" inkscape:window-x="-8" inkscape:window-y="-8" inkscape:window-maximized="1" showguides="true" guidecolor="#af0000" guideopacity="0.49803922" guidehicolor="#ff4b4b" guidehiopacity="0.49803922" inkscape:snap-global="false">
<inkscape:grid type="xygrid" id="grid815" empspacing="1" originx="0" originy="0" spacingx="0" spacingy="0" snapvisiblegridlinesonly="true" visible="true" enabled="true" dotted="false"></inkscape:grid>
</sodipodi:namedview>
<metadata id="metadata5">
<rdf:rdf>
<cc:work rdf:about="">
<dc:format>image/svg+xml</dc:format>
<dc:type rdf:resource="http://purl.org/dc/dcmitype/StillImage"></dc:type>
<dc:title></dc:title>
</cc:work>
</rdf:rdf>
</metadata>
<g inkscape:label="Guides" inkscape:groupmode="layer" id="layer1" transform="translate(0,-290.64999)">
<path style="color: rgb(0, 0, 0); font: medium sans-serif; font-feature-settings: normal; text-indent: 0px; text-align: start; text-decoration: none solid rgb(0, 0, 0); letter-spacing: normal; word-spacing: normal; text-transform: none; writing-mode: lr-tb; direction: ltr; text-orientation: mixed; dominant-baseline: auto; baseline-shift: baseline; text-anchor: start; white-space: normal; clip-rule: nonzero; display: inline; overflow: visible; visibility: visible; opacity: 1; isolation: auto; mix-blend-mode: normal; color-interpolation: srgb; color-interpolation-filters: linearrgb; vector-effect: none; fill: rgb(46, 158, 72); fill-opacity: 1; fill-rule: nonzero; stroke: none; stroke-width: 0.529167; stroke-linecap: round; stroke-linejoin: round; stroke-miterlimit: 4; stroke-dasharray: none; stroke-dashoffset: 0; stroke-opacity: 1; paint-order: normal; color-rendering: auto; image-rendering: auto; shape-rendering: auto; text-rendering: auto;" d="m 1.1308594,291.51953 c -0.1792707,0 -0.3339844,0.15209 -0.3339844,0.33203 v 1.76953 c 0,0.1562 0.14128881,0.25599 0.2890625,0.28907 l -0.048828,0.53711 c -0.020673,0.24469 0.2741447,0.38312 0.4492187,0.21093 l 0.7070313,-0.70508 H 3.703125 c 0.1792844,0 0.3320312,-0.15208 0.3320312,-0.33203 v -1.76953 c 0,-0.17992 -0.1527605,-0.33203 -0.3320312,-0.33203 z" id="rect939" inkscape:connector-curvature="0" sodipodi:nodetypes="sssccccsssss"></path>
<path style="opacity:1;fill:#b9b9b9;fill-opacity:1;fill-rule:nonzero;stroke:none;stroke-width:2.00000024;stroke-linecap:round;stroke-linejoin:round;stroke-miterlimit:4;stroke-dasharray:none;stroke-dashoffset:1.79999995;stroke-opacity:1;paint-order:normal" d="M 6.5136719 7.0839844 A 0.69033312 0.68901407 0 0 0 5.8242188 7.7714844 A 0.69033312 0.68901407 0 0 0 6.5136719 8.4609375 A 0.69033312 0.68901407 0 0 0 7.2050781 7.7714844 A 0.69033312 0.68901407 0 0 0 6.5136719 7.0839844 z M 9.0898438 7.0839844 A 0.69033312 0.68901407 0 0 0 8.4003906 7.7714844 A 0.69033312 0.68901407 0 0 0 9.0898438 8.4609375 A 0.69033312 0.68901407 0 0 0 9.78125 7.7714844 A 0.69033312 0.68901407 0 0 0 9.0898438 7.0839844 z M 11.666016 7.0839844 A 0.69033312 0.68901407 0 0 0 10.976562 7.7714844 A 0.69033312 0.68901407 0 0 0 11.666016 8.4609375 A 0.69033312 0.68901407 0 0 0 12.357422 7.7714844 A 0.69033312 0.68901407 0 0 0 11.666016 7.0839844 z " transform="matrix(0.26458334,0,0,0.26458334,0,290.64999)" id="path946"></path>
<path style="color: rgb(0, 0, 0); font: medium sans-serif; font-feature-settings: normal; text-indent: 0px; text-align: start; text-decoration: none solid rgb(0, 0, 0); letter-spacing: normal; word-spacing: normal; text-transform: none; writing-mode: lr-tb; direction: ltr; text-orientation: mixed; dominant-baseline: auto; baseline-shift: baseline; text-anchor: start; white-space: normal; clip-rule: nonzero; display: inline; overflow: visible; visibility: visible; opacity: 1; isolation: auto; mix-blend-mode: normal; color-interpolation: srgb; color-interpolation-filters: linearrgb; vector-effect: none; fill: rgb(2, 191, 46); fill-opacity: 1; fill-rule: nonzero; stroke: none; stroke-width: 0.529167; stroke-linecap: round; stroke-linejoin: round; stroke-miterlimit: 4; stroke-dasharray: none; stroke-dashoffset: 0; stroke-opacity: 1; paint-order: normal; color-rendering: auto; image-rendering: auto; shape-rendering: auto; text-rendering: auto;" d="m 2.6464844,292.91406 c -0.1792707,0 -0.3320313,0.15211 -0.3320313,0.33203 v 1.76953 c 0,0.17995 0.1527469,0.33204 0.3320313,0.33204 H 4.15625 l 0.7070312,0.70507 c 0.1750739,0.17219 0.4698917,0.0338 0.4492188,-0.21093 l -0.048828,-0.53711 c 0.1483989,-0.0326 0.2890625,-0.13241 0.2890625,-0.28907 v -1.76953 c 0,-0.17994 -0.1527606,-0.33203 -0.3320313,-0.33203 z" id="path964" inkscape:connector-curvature="0" sodipodi:nodetypes="ssssccccssss"></path>
<path style="opacity:1;fill:#cccccc;fill-opacity:1;fill-rule:nonzero;stroke:none;stroke-width:2.00000024;stroke-linecap:round;stroke-linejoin:round;stroke-miterlimit:4;stroke-dasharray:none;stroke-dashoffset:1.79999995;stroke-opacity:1;paint-order:normal" d="M 12.333984 12.355469 A 0.69033312 0.68901407 0 0 0 11.642578 13.044922 A 0.69033312 0.68901407 0 0 0 12.333984 13.732422 A 0.69033312 0.68901407 0 0 0 13.023438 13.044922 A 0.69033312 0.68901407 0 0 0 12.333984 12.355469 z M 14.910156 12.355469 A 0.69033312 0.68901407 0 0 0 14.21875 13.044922 A 0.69033312 0.68901407 0 0 0 14.910156 13.732422 A 0.69033312 0.68901407 0 0 0 15.599609 13.044922 A 0.69033312 0.68901407 0 0 0 14.910156 12.355469 z M 17.486328 12.355469 A 0.69033312 0.68901407 0 0 0 16.794922 13.044922 A 0.69033312 0.68901407 0 0 0 17.486328 13.732422 A 0.69033312 0.68901407 0 0 0 18.175781 13.044922 A 0.69033312 0.68901407 0 0 0 17.486328 12.355469 z " transform="matrix(0.26458334,0,0,0.26458334,0,290.64999)" id="circle966"></path>
</g>
</svg>